PathFileType	4	(X/Y/Z)	T1_P2_Vision_Movement_0_0-735.trc
DataRate	CameraRate	NumFrames	NumMarkers	Units	OrigDataRate	OrigDataStartFrame	OrigNumFrames
60	60	7	27	m	60	0	735
Frame#	Time	RHip			RKnee			RAnkle			RBigToe			RSmallToe			RHeel			LHip			LKnee			LAnkle			LBigToe			LSmallToe			LHeel			Neck			Head			Nose			RShoulder			RElbow			RWrist			RThumb			RIndex			RPinky			LShoulder			LElbow			LWrist			LThumb			LIndex			LPinky		
		X1	Y1	Z1	X2	Y2	Z2	X3	Y3	Z3	X4	Y4	Z4	X5	Y5	Z5	X6	Y6	Z6	X7	Y7	Z7	X8	Y8	Z8	X9	Y9	Z9	X10	Y10	Z10	X11	Y11	Z11	X12	Y12	Z12	X13	Y13	Z13	X14	Y14	Z14	X15	Y15	Z15	X16	Y16	Z16	X17	Y17	Z17	X18	Y18	Z18	X19	Y19	Z19	X20	Y20	Z20	X21	Y21	Z21	X22	Y22	Z22	X23	Y23	Z23	X24	Y24	Z24	X25	Y25	Z25	X26	Y26	Z26	X27	Y27	Z27
1	0.0166666666666666	449.969141781524	3708.928376246756	658.9827709227733	838.9748747728579	3742.2520397822846	653.7592353779804	1221.4306405533462	3733.493148732433	692.2824509750255	1287.8741321566981	3622.135332807504	642.510010353967	1288.1191833014702	3669.2864831662155	600.5624419886905	1293.5382712468192	3802.746432955713	748.0811158994806	455.220663444675	3634.959355200185	853.955894875013	851.4480310248921	3657.9118018360123	868.4993672787916	1239.1950285471098	3681.4616322319107	857.3736239544223	1310.8943518965673	3539.496435279456	802.7510580725603	1291.1683880911755	3533.862656731316	843.2341287640859	1271.6123813355734	3731.3042696392167	866.3297019110975	-109.6169425912392	3629.7130279228986	746.3576648254722	-373.2338620337156	3513.7720772045795	729.0228949201927	-212.861445772019	3448.044138961075	718.5946174281139	-43.21071527715087	3655.4134204361494	574.1694019614653	201.9898922436377	3772.145681208547	534.5456225274544	449.26609188623985	3628.872634882978	499.2206533921515	558.8217437603581	3505.9323273492096	494.1212050494771	605.3623445420826	3584.018378704499	504.8992051859781	607.8949672488714	3645.5014867530463	489.08458897933866	-29.12639067943122	3600.9336453315113	901.9274133472713	223.4667824787703	3623.9754670306747	977.4335825520963	456.66542023437927	3558.7204599203847	963.9301643109397	576.392574452489	3585.4980516943624	950.3544633058598	600.0840796040716	3569.96075825376	960.3478249396891	584.8883372297497	3575.2284504911036	999.9791077525293
2	0.0333333333333333	453.54604788679444	3706.8154142072044	658.6474649831873	846.9716068013602	3746.9231759930726	656.4000376999008	1221.7172734517771	3732.7209019267707	691.8130227049436	1283.7842310448082	3618.8750858476906	643.5940051736595	1288.2873961193923	3671.3636175328083	603.9395251341045	1290.042181495336	3799.3028694036257	746.9223102378039	455.4414212599287	3634.804669455349	853.9446414251034	857.343060391675	3670.1943110108305	873.140689022449	1235.021179194855	3679.662633838466	856.15289094442	1307.050179178822	3541.3157689032155	804.2931570970347	1288.3093528892782	3536.6188745025142	844.6352899454577	1267.896104034145	3721.570577103331	862.4472585385872	-111.68789884954954	3627.89189693243	745.6120824683376	-372.1236836429305	3512.415644082911	730.0771328384991	-212.9930234860419	3447.9350700129794	718.5844349714976	-43.24229306289049	3655.5294512364653	574.2550726024446	202.7819269223648	3772.7512593493548	535.5233287300267	448.4231359474211	3628.341177770856	499.0936039582855	556.0039927167269	3505.1725963628196	493.7015332734202	603.5420312436496	3584.4678270300797	505.67796608276814	601.6316980362496	3643.950049478761	489.8173253286217	-30.34293481054766	3599.7976032815463	901.3875571409458	223.28092248430707	3620.6261493761767	976.2068202754422	458.0119870186511	3573.2840454955767	967.6626727979769	576.337538166906	3585.8942561630784	950.4616557893063	599.4160081288611	3569.1312055598673	961.8153637501807	584.9260902497866	3575.526764676059	1000.0249643448346
3	0.05	455.36648068231574	3700.520291729566	656.8889032823743	851.5154398107098	3748.500863918894	657.4807231883993	1222.012720311307	3731.446159324604	691.0829489647497	1281.4884381625302	3617.6123914224872	643.34094148651	1289.8493037129072	3675.8534241715015	606.0869588998819	1287.9985122098542	3796.4523028355875	745.823579889021	456.0270805245607	3634.0811773281384	853.6007111965071	859.9135457214263	3673.659996730368	874.6288199148437	1231.9625301796113	3678.141423078067	855.1908551623405	1304.3105006164128	3541.9253994737996	805.0719709874005	1287.1896609783998	3538.4211851647397	845.6532809207145	1265.1826885850494	3716.6349515513507	860.4697379616405	-113.02183540795693	3626.6503936982863	745.0579441566115	-371.3878992182148	3509.8605867820643	730.9741126904994	-213.04434039610263	3447.831853895043	718.5755598795047	-43.25831351008613	3655.587037120338	574.303153163842	201.93951637083876	3773.3073478740544	536.9318058717022	447.1093508064829	3627.4810086997386	498.8973945616028	554.211119746224	3504.506546362154	493.34930936335144	602.2928950636937	3583.492905686948	507.3543246645373	598.6517083426601	3645.7351732999523	493.46636663605847	-30.84627541201633	3599.2915339071606	901.1515035394208	222.8926423569414	3615.112475508748	974.21210351358	458.0141810973406	3581.1469352190575	969.5193451424393	576.3449630708888	3586.2201276808883	950.5614531683345	598.1795912124287	3568.2586159847833	962.9456686812051	584.3530191941716	3575.4018428673153	999.8745156095689
4	0.0666666666666666	455.1332854183428	3691.392123275754	654.1178539426925	852.2747867963152	3747.6461096569515	657.2584059387434	1222.12958920147	3730.604902190748	690.6066737363087	1281.3112732689715	3618.12917372577	642.3742522500639	1291.7123086388997	3682.3237418266303	607.1868400442727	1287.3473156821753	3795.110241730378	745.261284935294	457.0700342444268	3632.693146286782	852.8583767792285	859.1912197578729	3668.764354419546	873.0964914479695	1230.8503605421904	3677.4400198524318	854.7320056508167	1302.7987143578723	3541.7541409593014	805.2072372187805	1287.3715976011595	3539.0228376763816	846.0798768778134	1263.3354095494656	3714.8558856274763	859.916226951198	-112.88403565021038	3626.5814672410397	744.9659761601998	-370.50792163858176	3504.9810913311258	730.939093359149	-212.99733442647738	3447.7549250633274	718.5726945819775	-43.259623068454886	3655.58276738747	574.3049786309863	200.10393620997428	3773.9813558691903	538.4287118707051	445.94177968518704	3626.6647774752764	498.721679643494	553.5679147676955	3504.0041696434137	493.08836119107855	601.2208827595681	3579.6999645213364	509.1982328197526	598.997524975751	3650.321775427433	499.3147756934068	-30.39185570609616	3599.5917636427207	901.2920569391351	222.5016621941972	3609.955087756737	972.3509896820005	457.09016817011224	3581.7106408047393	969.02614704692	576.4424665864182	3586.408804246656	950.6211525653699	596.7493472649521	3567.718036559913	963.1662071068083	582.8944556282954	3574.1790065719115	999.2483095785976
5	0.0833333333333333	453.94657330122544	3685.0547309790663	652.1536172387471	850.8238202697037	3746.74655651725	656.8825946865485	1222.1500066000506	3731.990590377675	691.3631604529608	1282.3571012301495	3619.094145406404	641.8776828912487	1291.6640590761194	3687.99263647211	607.8228152009915	1287.3799492292094	3796.0333558578463	745.8889641866682	457.97672466855295	3631.4514514336106	852.1697788222796	857.5090792606343	3662.3946172725728	870.9578298884792	1231.7391503972553	3678.132006791056	855.1025623653277	1302.7458856330395	3543.2031697982998	805.6811724816016	1287.420436177211	3538.8310331864905	845.9905798316415	1261.872045878366	3712.3932714370394	859.3410754004178	-111.5419684950028	3627.515025552319	745.3203431574848	-369.4532502272349	3498.581216834216	729.7441158096356	-212.90401903513245	3447.7198200831745	718.5746011413512	-43.25550613814011	3655.5447533969023	574.2733703929352	199.01226026474674	3774.793938191757	539.3246664078764	445.93697545937573	3626.5584849267725	498.6958723316119	553.5556720937487	3503.628886030876	493.01166412368866	599.7003238981166	3572.4642216910024	509.343893774771	600.3594706048691	3654.1247949876924	503.82622138926587	-29.54427680615482	3600.1934262132067	901.5559173526342	222.51538835530982	3609.9923530950427	972.3455085882771	456.8678451403855	3579.7893349622686	967.6070289552387	576.4688820286462	3586.3192225107196	950.5512813317531	596.0782168127222	3567.879926069367	962.2786850771936	581.0737005153566	3571.274699229595	997.9791862090548
6	0.1	453.1947648097396	3684.9568828244755	652.0947389938202	848.6811097082766	3746.8829807508146	656.9390123223023	1222.6593501596337	3736.6436276189506	693.9291247651942	1283.5055195617358	3619.667091989704	641.9792175541152	1289.5372529845924	3691.101647492444	608.1751282940971	1288.0395688936133	3799.1318969770277	747.9891919662248	457.8920056361445	3631.453156009096	852.1669998610708	856.5004867187499	3659.1009000398008	869.8359711781062	1233.7334735571908	3680.3791170853133	856.6731591004727	1304.5267424832505	3548.3014503807217	807.319416428483	1286.8882202110576	3538.431750344301	845.6829440367851	1260.5860024918322	3709.1121619772002	858.4329867998088	-110.18898057386927	3628.5504432094826	745.7637835074382	-369.0932328466557	3493.2546937818565	728.2140397033845	-212.83511237517772	3447.7217362510837	718.5802204974996	-43.24939547453955	3655.5167747298165	574.2412013961894	199.17778624669515	3775.3790649164507	539.724817435711	446.7313626982933	3627.0340297481225	498.70793736047295	553.7012323271317	3503.189520918345	493.40420589379625	597.548437076398	3562.779637124419	506.73265240493834	600.8341805544595	3654.21180318873	504.4176857749436	-28.989657726860845	3600.5615490838895	901.7023540574484	222.96026803353757	3615.35788790089	974.2366661182408	457.9426288290858	3579.7379008097178	966.9548376623751	575.9474088045911	3585.734334469722	950.2588249195513	596.2684582827214	3568.5099403863433	960.8809812544138	579.9335151710467	3567.5924784512185	996.4938522964123
7	0.1166666666666666	453.6077448126543	3688.928270526938	653.2610358133674	847.2079771524	3747.8057565767845	657.3954385895024	1223.6359164301696	3742.8884082018153	697.4006762948858	1284.2429561097144	3619.8313903802155	642.2660747736909	1287.2058595649182	3691.984345749259	608.5417541690817	1289.254188729833	3803.0193484452516	750.7825870180918	456.84612625120434	3632.665991364877	852.8532667149527	856.2691071766446	3658.6184802223906	869.6971204103687	1235.608319260557	3683.4714185634643	859.2006708905801	1307.378366828189	3555.7361059413734	809.7594945508378	1286.5144717420524	3538.284495531256	845.5234102181458	1259.4204896039957	3706.8844802840017	857.6587730271941	-109.55848494344204	3629.0982599015097	746.0309325948184	-369.5381913907715	3490.5936512615353	727.2004410949985	-212.81715851781956	3447.7369839175853	718.591656736936	-43.24246943628197	3655.544454853221	574.2487058500209	199.59669801223188	3775.3570975003636	540.1803913095544	446.84479573940285	3627.335706314629	498.5481132651816	553.7845719501238	3502.5340183884	494.50975217456437	594.948892102954	3553.272077421157	502.2394480370353	600.0103680967686	3650.2872042014073	501.24256471091934	-28.855651321378964	3600.6605768610098	901.7491938353153	223.433145590959	3621.2168684043963	976.3022807539433	459.2249715532964	3581.664659472067	967.3130882739761	574.4022645522228	3584.725849484842	949.8519676790877	596.1701641744769	3569.028463070445	959.8555377908738	580.1202860564675	3566.150712263614	995.9386314139188
